<?xml version="1.0" encoding="utf-8"?>
<!-- Generator: Adobe Illustrator 25.0.0, SVG Export Plug-In . SVG Version: 6.00 Build 0)  -->
<svg version="1.1" id="图层_1" xmlns="http://www.w3.org/2000/svg" xmlns:xlink="http://www.w3.org/1999/xlink" x="0px" y="0px"
	 viewBox="0 0 21.4 21.4" style="enable-background:new 0 0 21.4 21.4;" xml:space="preserve">
<style type="text/css">
	.st0{fill:none;stroke:#ffffff;stroke-linecap:round;stroke-linejoin:round;stroke-miterlimit:2;}
</style>
<path class="st0" d="M10.7,20.7c5.5,0,10-4.5,10-10s-4.5-10-10-10s-10,4.5-10,10S5.2,20.7,10.7,20.7z"/>
<path class="st0" d="M0.7,10.7h20"/>
<path class="st0" d="M10.7,20.7c2.2,0,4-4.5,4-10s-1.8-10-4-10s-4,4.5-4,10S8.5,20.7,10.7,20.7z"/>
<path class="st0" d="M3.7,3.8C5.5,5.6,8,6.7,10.7,6.7c2.8,0,5.3-1.1,7.1-2.9"/>
<path class="st0" d="M17.8,17.7c-1.8-1.8-4.3-2.9-7.1-2.9c-2.8,0-5.3,1.1-7.1,2.9"/>
</svg>
