<?xml version="1.0" encoding="utf-8"?>
<!-- Generator: Adobe Illustrator 25.0.0, SVG Export Plug-In . SVG Version: 6.00 Build 0)  -->
<svg version="1.1" id="图层_1" xmlns="http://www.w3.org/2000/svg" xmlns:xlink="http://www.w3.org/1999/xlink" x="0px" y="0px"
	 viewBox="0 0 598 594" style="enable-background:new 0 0 598 594;" xml:space="preserve">
<style type="text/css">
	.st0{clip-path:url(#SVGID_1_);fill:#ffffff;}
</style>
<g>
	<g>
		<defs>
			<rect id="SVGID_3_" x="5" y="7" width="588" height="581.8"/>
		</defs>
		<clipPath id="SVGID_1_">
			<use xlink:href="#SVGID_3_"  style="overflow:visible;"/>
		</clipPath>
		<path class="st0" d="M68.4,7.4c-17.2-0.9-33.9,5.6-46,17.8C10.3,37.5,4,54.3,5.1,71.4c-0.7,16.9,5.8,33.3,17.8,45.2
			c12,11.9,28.5,18.2,45.4,17.2c16.9,0.7,33.4-5.7,45.5-17.5c12.1-11.9,18.8-28.2,18.5-45.2c0.6-17.1-5.9-33.8-18.1-45.8
			C102.1,13.2,85.5,6.8,68.4,7.4L68.4,7.4z M592.1,587.8V348.1c0-119-59.3-173.6-138.4-173.6c-48.1-0.5-93.2,23.7-119.4,64h-2.4
			l-5.5-55.3H222c1.5,35.6,3.2,78.5,3.2,128.9v275.7h120.2V354.7c-0.4-10.7,1.2-21.3,4.6-31.5c7.5-27.5,32.3-46.7,60.8-47.1
			c43.5,0,60.9,35.6,60.9,87.7v224H592.1z M8.6,183.6h120.2v404.2H8.6V183.6z M8.6,183.6"/>
	</g>
</g>
</svg>
