<?xml version="1.0" encoding="utf-8"?>
<!-- Generator: Adobe Illustrator 25.0.0, SVG Export Plug-In . SVG Version: 6.00 Build 0)  -->
<svg version="1.1" id="图层_1" xmlns="http://www.w3.org/2000/svg" xmlns:xlink="http://www.w3.org/1999/xlink" x="0px" y="0px"
	 viewBox="0 0 830 586.9" style="enable-background:new 0 0 830 586.9;" xml:space="preserve">
<style type="text/css">
	.st0{clip-path:url(#SVGID_1_);fill:#ffffff;}
</style>
<g>
	<g>
		<defs>
			<rect id="SVGID_3_" x="5" y="3" width="819.8" height="581.8"/>
		</defs>
		<clipPath id="SVGID_1_">
			<use xlink:href="#SVGID_3_"  style="overflow:visible;"/>
		</clipPath>
		<path class="st0" d="M346.2,413.1V174.2L551,294.1L346.2,413.1z M815.9,128.7c0,0-8-56.8-32.6-81.9c-31.2-32.9-66.1-33-82.1-34.9
			C586.6,3.5,414.6,3.5,414.6,3.5h-0.3c0,0-172,0-286.6,8.4c-16,1.9-50.9,2-82.1,34.9c-24.5,25.1-32.5,81.9-32.5,81.9
			s-8.2,66.7-8.2,133.4v62.6c0,66.8,8.2,133.5,8.2,133.5s8,56.8,32.5,81.9c31.2,32.9,72.1,31.8,90.3,35.3
			c65.5,6.4,278.5,8.3,278.5,8.3s172.1-0.3,286.8-8.6c16-1.9,50.9-2.1,82.1-35c24.6-25.1,32.6-81.9,32.6-81.9s8.2-66.7,8.2-133.5
			v-62.6C824.1,195.5,815.9,128.7,815.9,128.7L815.9,128.7z M815.9,128.7"/>
	</g>
</g>
</svg>
