<?xml version="1.0" encoding="utf-8"?>
<!-- Generator: Adobe Illustrator 25.0.0, SVG Export Plug-In . SVG Version: 6.00 Build 0)  -->
<svg version="1.1" id="图层_1" xmlns="http://www.w3.org/2000/svg" xmlns:xlink="http://www.w3.org/1999/xlink" x="0px" y="0px"
	 viewBox="0 0 656 724" style="enable-background:new 0 0 656 724;" xml:space="preserve">
<style type="text/css">
	.st0{clip-path:url(#SVGID_2_); fill: #ffffff;}
</style>
<g>
	<g>
		<g>
			<defs>
				<rect id="SVGID_1_" x="6" y="4" width="642.9" height="717.8"/>
			</defs>
			<clipPath id="SVGID_2_">
				<use xlink:href="#SVGID_1_"  style="overflow:visible;"/>
			</clipPath>
			<path class="st0" d="M601.8,126.5c28.5-52.9-4.1-122.1-4.1-122.1c-73.3,0-126.2,48.9-126.2,48.9C443,37,349.4,37,349.4,37
				s-93.6,0-122.1,16.3c0,0-52.9-48.9-126.2-48.9c0,0-32.6,69.2-4.1,122.1c0,0-65.1,61.1-40.7,191.3
				c22.9,122.4,130.3,154.7,199.5,154.7c0,0-28.5,24.4-24.4,65.1c0,0-40.7,24.4-81.4,8.1c-40.7-16.3-61.1-57-61.1-57
				s-40.7-52.9-81.4-32.6c0,0-12.2,12.2,32.6,32.6c0,0,32.6,48.9,44.8,77.3c12.2,28.5,77.3,52.9,142.5,36.6v93.6
				c0,0,0,8.1-16.3,12.2c-16.3,4.1-16.3,12.2-8.1,12.2h293.1c8.1,0,8.1-8.1-8.1-12.2c-16.3-4.1-16.3-12.2-16.3-12.2v-93.6
				c0,0,0.4-48.8,0-65.1c-0.9-40.9-28.5-65.1-28.5-65.1c69.2,0,176.5-32.3,199.5-154.7C666.9,187.6,601.8,126.5,601.8,126.5
				L601.8,126.5z"/>
		</g>
	</g>
</g>
</svg>
