<?xml version="1.0" encoding="utf-8"?>
<!-- Generator: Adobe Illustrator 25.0.0, SVG Export Plug-In . SVG Version: 6.00 Build 0)  -->
<svg version="1.1" id="图层_1" xmlns="http://www.w3.org/2000/svg" xmlns:xlink="http://www.w3.org/1999/xlink" x="0px" y="0px"
	 viewBox="0 0 824.7 657" style="enable-background:new 0 0 824.7 657;" xml:space="preserve">
<style type="text/css">
	.st0{clip-path:url(#SVGID_2_);fill:#ffffff;}
</style>
<g>
	<g>
		<defs>
			<rect id="SVGID_1_" x="2.3" y="2.5" width="819.8" height="652.8"/>
		</defs>
		<clipPath id="SVGID_2_">
			<use xlink:href="#SVGID_1_"  style="overflow:visible;"/>
		</clipPath>
		<path class="st0" d="M787.3,2.4H36.3C15.9,2.4,2.2,16,2.2,36.5v583.7c0,20.5,13.7,34.1,34.1,34.1h750.9
			c20.5,0,34.1-13.7,34.1-34.1V36.5C821.4,19.5,804.3,2.4,787.3,2.4L787.3,2.4z M753.1,70.7v68.3l-314,208.2
			c-17.1,10.2-37.5,10.2-54.6,0l-314-204.8V74.1h682.7V70.7z M70.5,589.5V224.3L350.4,412c20.5,10.2,41,17.1,61.4,17.1
			c20.5,0,44.4-6.8,64.9-17.1l276.5-187.7v365.2H70.5z M70.5,589.5"/>
	</g>
</g>
</svg>
