<?xml version="1.0" encoding="utf-8"?>
<!-- Generator: Adobe Illustrator 25.0.0, SVG Export Plug-In . SVG Version: 6.00 Build 0)  -->
<svg version="1.1" id="图层_1" xmlns="http://www.w3.org/2000/svg" xmlns:xlink="http://www.w3.org/1999/xlink" x="0px" y="0px"
	 viewBox="0 0 725.3 723.3" style="enable-background:new 0 0 725.3 723.3;" xml:space="preserve">
<style type="text/css">
	.st0{fill:#FFFFFF;}
</style>
<g>
	<path class="st0" d="M589.9,720.5h-130v-65h130.6c35.9,0,65-29.1,65-65V459.9h65v130.6C720.2,662.3,661.8,720.5,589.9,720.5
		L589.9,720.5z M655.4,134.2c0-35.9-29.1-65-65-65H459.9V3.7h130.6c71.9,0.3,130,58.7,130,130.6v130.1h-65V134.2z M264.3,68.7H134.2
		c-17.4-0.1-34.2,6.7-46.5,19c-12.3,12.3-19.2,29.1-19,46.5v130.1h-65V134.2C3.7,62.1,62.1,3.7,134.2,3.7h130.1V68.7z M68.7,589.9
		c0,35.9,29.1,65,65,65h130.6v65.5H134.2c-34.6,0-67.8-13.8-92.3-38.2c-24.5-24.5-38.2-57.7-38.2-92.3v-130h65V589.9z M68.7,589.9"
		/>
</g>
</svg>
